# xmcd CD database file
#
# Track frame offsets:
#	150
#	35249
#	52409
#	62459
#	76440
#	91666
#	100091
#	118541
#	143052
#	165298
#	181153
#	195853
#	204253
#	216480
#	245298
#	273498
#	284066
#	298166
#	324791
#
# Disc length: 4582
# Revision: 1
# Processed by: cddbd v1.5.2PL0 Copyright (c) Steve Scherf et al.
# Submitted via: cddb.el 1.0 (Emacs 27.0.50)
#
DISCID=1311e413
DTITLE=Various Artist - Counter Culture 17 (1)
DYEAR=2018
DGENRE=
TTITLE0=King Gizzard and The Lizard Wizard - Rattlesnake
TTITLE1=Chastity Belt - Different Now
TTITLE2=Feature - Psalms
TTITLE3=Sacred Paws - Everyday
TTITLE4=Superorganism - It's All Good
TTITLE5=Starcrawler - Ants
TTITLE6=Lowly - Deer Eyes
TTITLE7=Rolling Blackouts Coastal Fever - French Press
TTITLE8=Jerkcurb - Voodoo Salon
TTITLE9=Lice - The Human Parasite
TTITLE10=Alvvays - Lollipop (Ode to Jim)
TTITLE11=Priests - Puff
TTITLE12=Princess Nokia - G.O.A.T.
TTITLE13=Tomaga - Greetings from the Bitter End
TTITLE14=Yally - Dread Risk
TTITLE15=Breakfast Muff - R U A Feminist
TTITLE16=Hazel English - That Thing
TTITLE17=Hand Habits - Sun Beholds Me
TTITLE18=Ariel Pink - Another Weekend
EXTD=
EXTT0=
EXTT1=
EXTT2=
EXTT3=
EXTT4=
EXTT5=
EXTT6=
EXTT7=
EXTT8=
EXTT9=
EXTT10=
EXTT11=
EXTT12=
EXTT13=
EXTT14=
EXTT15=
EXTT16=
EXTT17=
EXTT18=
PLAYORDER=
